<svg xmlns="http://www.w3.org/2000/svg" width="18.5" height="18" viewBox="0 0 18.5 18">
  <g id="Icon_ionic-ios-information-circle-outline" data-name="Icon ionic-ios-information-circle-outline" transform="translate(-3.375 -3.375)">
    <path id="Path_8299" data-name="Path 8299" d="M12.625,4.587m0-1.212a9.126,9.126,0,0,0-9.25,9,9.126,9.126,0,0,0,9.25,9,9.126,9.126,0,0,0,9.25-9,9.126,9.126,0,0,0-9.25-9Z"/>
    <path id="Path_8300" data-name="Path 8300" d="M7.5-.238a7.163,7.163,0,0,1,7.318,7.282,5.792,5.792,0,0,1-1.04,3.668A7.69,7.69,0,0,1,7.5,14.18a8.329,8.329,0,0,1-5.632-2.1A6.768,6.768,0,0,1-.267,7.044,7.551,7.551,0,0,1,7.5-.238Z" transform="translate(5.375 5.375)" fill="#fff"/>
    <path id="Path_8298" data-name="Path 8298" d="M16.65,12.8a1.389,1.389,0,0,1,1.428-1.391,1.385,1.385,0,0,1,0,2.77A1.38,1.38,0,0,1,16.65,12.8Zm0,2.415h2.8l-.113,7.838H16.65Z" transform="translate(-5.375 -5.425)"/>
  </g>
</svg>
