<svg xmlns="http://www.w3.org/2000/svg" width="18.824" height="23.33" viewBox="0 0 18.824 23.33">
  <g id="Group_5160" data-name="Group 5160" transform="translate(0 1)">
    <g id="Group_16" data-name="Group 16" transform="translate(1.459 2.204)">
      <g id="Group_15" data-name="Group 15" transform="translate(0)">
        <path id="Path_32" data-name="Path 32" d="M93.376,71.32a7.714,7.714,0,0,0-7.849,7.554V86.9h1.624V78.874a6.23,6.23,0,0,1,12.451,0V86.9h1.624V78.874A7.714,7.714,0,0,0,93.376,71.32Z" transform="translate(-85.527 -71.32)" fill="#248232"/>
      </g>
    </g>
    <g id="Group_18" data-name="Group 18" transform="translate(0 17.329)">
      <g id="Group_17" data-name="Group 17">
        <path id="Path_33" data-name="Path 33" d="M71.073,400.67H53.863a.782.782,0,1,0,0,1.563H71.073a.782.782,0,1,0,0-1.563Z" transform="translate(-53.056 -400.67)" fill="#248232"/>
      </g>
    </g>
    <g id="Group_20" data-name="Group 20" transform="translate(6.907 -1)">
      <g id="Group_19" data-name="Group 19" transform="translate(0)">
        <path id="Path_34" data-name="Path 34" d="M202.732,0a2.4,2.4,0,1,0,2.4,2.4A2.4,2.4,0,0,0,202.732,0Zm0,3.23a.834.834,0,1,1,.834-.834A.845.845,0,0,1,202.732,3.23Z" transform="translate(-200.336)" fill="#248232"/>
      </g>
    </g>
    <g id="Group_22" data-name="Group 22" transform="translate(6.492 18.11)">
      <g id="Group_21" data-name="Group 21" transform="translate(0)">
        <path id="Path_35" data-name="Path 35" d="M195.225,418.066v1.354a1.3,1.3,0,1,1-2.6,0v-1.354h-1.563v1.354a2.865,2.865,0,0,0,5.73,0v-1.354Z" transform="translate(-191.057 -418.066)" fill="#248232"/>
      </g>
    </g>
  </g>
</svg>
