<svg xmlns="http://www.w3.org/2000/svg" width="20.369" height="24.449" viewBox="0 0 20.369 24.449">
  <g id="Group_226" data-name="Group 226" transform="translate(0.253 0.25)">
    <g id="Group_225" data-name="Group 225" transform="translate(4.747)">
      <g id="Group_224" data-name="Group 224">
        <path id="Path_151" data-name="Path 151" d="M150.5,0a5.363,5.363,0,0,0-5.357,5.357V8.6h1.869V5.357a3.488,3.488,0,0,1,6.976,0V8.6h1.868V5.357A5.363,5.363,0,0,0,150.5,0Z" transform="translate(-145.145)" fill="#248232" stroke="#fff" stroke-width="0.5"/>
      </g>
    </g>
    <g id="Group_222" data-name="Group 222" transform="translate(0 7.661)">
      <path id="Path_150" data-name="Path 150" d="M63.516,176.11l-1.183-11.492a.934.934,0,0,0-.929-.839H45.832a.934.934,0,0,0-.929.836l-1.215,11.5a3.611,3.611,0,0,0,3.577,3.955H59.971A3.558,3.558,0,0,0,62.6,178.9,3.629,3.629,0,0,0,63.516,176.11Zm-2.3,1.538a1.667,1.667,0,0,1-1.249.552H47.265a1.743,1.743,0,0,1-1.718-1.9l1.126-10.656H60.561l1.1,10.649A1.731,1.731,0,0,1,61.221,177.648Z" transform="translate(-43.67 -163.78)" fill="#248232" stroke="#fff" stroke-width="0.5"/>
    </g>
    <g id="Path_3385" data-name="Path 3385" transform="translate(2 9.081)" fill="#248232">
      <path d="M 1.848849654197693 13.49503326416016 L -0.3524317443370819 12.40796661376953 L 0.7415623664855957 0.1364252120256424 L 15.22502517700195 0.4886161088943481 L 15.89908027648926 12.89949893951416 L 1.848849654197693 13.49503326416016 Z" stroke="none"/>
      <path d="M 1.197964668273926 0.647669792175293 L 0.1760053634643555 12.11127662658691 L 1.955526351928711 12.99006366729736 L 15.37237071990967 12.42137622833252 L 14.75082015991211 0.9772310256958008 L 1.197964668273926 0.647669792175293 M 0.2851505279541016 -0.3748188018798828 L 15.69922065734863 1.9073486328125e-06 L 16.42578125 13.3776216506958 L 1.742191314697266 14.00000190734863 L -0.880859375 12.70465183258057 L 0.2851505279541016 -0.3748188018798828 Z" stroke="none" fill="#248232"/>
    </g>
  </g>
</svg>
