<svg xmlns="http://www.w3.org/2000/svg" width="20.369" height="24.449" viewBox="0 0 20.369 24.449">
  <g id="Group_226" data-name="Group 226" transform="translate(0.253 0.25)">
    <g id="Group_225" data-name="Group 225" transform="translate(4.747)">
      <g id="Group_224" data-name="Group 224">
        <path id="Path_151" data-name="Path 151" d="M150.5,0a5.363,5.363,0,0,0-5.357,5.357V8.6h1.869V5.357a3.488,3.488,0,0,1,6.976,0V8.6h1.868V5.357A5.363,5.363,0,0,0,150.5,0Z" transform="translate(-145.145)" fill="#248232" stroke="#fff" stroke-width="0.5"/>
      </g>
    </g>
    <g id="Group_222" data-name="Group 222" transform="translate(0 7.661)">
      <path id="Path_150" data-name="Path 150" d="M63.516,176.11l-1.183-11.492a.934.934,0,0,0-.929-.839H45.832a.934.934,0,0,0-.929.836l-1.215,11.5a3.611,3.611,0,0,0,3.577,3.955H59.971A3.558,3.558,0,0,0,62.6,178.9,3.629,3.629,0,0,0,63.516,176.11Zm-2.3,1.538a1.667,1.667,0,0,1-1.249.552H47.265a1.743,1.743,0,0,1-1.718-1.9l1.126-10.656H60.561l1.1,10.649A1.731,1.731,0,0,1,61.221,177.648Z" transform="translate(-43.67 -163.78)" fill="#248232" stroke="#fff" stroke-width="0.5"/>
    </g>
  </g>
</svg>
