<svg xmlns="http://www.w3.org/2000/svg" width="9.517" height="8.143" viewBox="0 0 9.517 8.143">
  <path id="Icon_ionic-ios-call" data-name="Icon ionic-ios-call" d="M13.732,10.879a8.2,8.2,0,0,0-1.67-.956c-.5-.206-.684-.2-1.038.017-.295.182-.486.352-.825.288A4.978,4.978,0,0,1,8.542,9.179,4.267,4.267,0,0,1,7.315,7.76c-.072-.293.126-.454.337-.706.255-.3.263-.46.02-.888A6.739,6.739,0,0,0,6.555,4.737c-.364-.312-.446-.244-.647-.182a3.94,3.94,0,0,0-.592.269,1.655,1.655,0,0,0-.711.642c-.141.261-.3.746.528,2.014a11.578,11.578,0,0,0,2.309,2.635h0l0,0,0,0h0a13.227,13.227,0,0,0,3.08,1.976c1.482.712,2.049.572,2.354.452a1.678,1.678,0,0,0,.751-.608,3.012,3.012,0,0,0,.315-.507C14.017,11.261,14.1,11.191,13.732,10.879Z" transform="translate(-4.49 -4.502)" fill="#484949"/>
</svg>
