<svg xmlns="http://www.w3.org/2000/svg" width="27.785" height="29.503" viewBox="0 0 27.785 29.503">
  <g id="Group_5173" data-name="Group 5173" transform="translate(-41 -269)">
    <g id="Path_8284" data-name="Path 8284" transform="translate(41 271.552)" fill="none">
      <path d="M3.357,0H20.143A3.363,3.363,0,0,1,23.5,3.369V23.582a3.363,3.363,0,0,1-3.357,3.369H3.357A3.363,3.363,0,0,1,0,23.582V3.369A3.363,3.363,0,0,1,3.357,0Z" stroke="none"/>
      <path d="M 3.357139587402344 2.000001907348633 C 2.608810424804688 2.000001907348633 2 2.614051818847656 2 3.368831634521484 L 2 23.58185195922852 C 2 24.33663177490234 2.608810424804688 24.95068168640137 3.357139587402344 24.95068168640137 L 20.14286041259766 24.95068168640137 C 20.89118957519531 24.95068168640137 21.5 24.33663177490234 21.5 23.58185195922852 L 21.5 3.368831634521484 C 21.5 2.614051818847656 20.89118957519531 2.000001907348633 20.14286041259766 2.000001907348633 L 3.357139587402344 2.000001907348633 M 3.357139587402344 1.9073486328125e-06 L 20.14286041259766 1.9073486328125e-06 C 21.9969596862793 1.9073486328125e-06 23.5 1.508281707763672 23.5 3.368831634521484 L 23.5 23.58185195922852 C 23.5 25.44240188598633 21.9969596862793 26.95068168640137 20.14286041259766 26.95068168640137 L 3.357139587402344 26.95068168640137 C 1.503040313720703 26.95068168640137 0 25.44240188598633 0 23.58185195922852 L 0 3.368831634521484 C 0 1.508281707763672 1.503040313720703 1.9073486328125e-06 3.357139587402344 1.9073486328125e-06 Z" stroke="none" fill="#2d3a3a"/>
    </g>
    <path id="Path_8285" data-name="Path 8285" d="M12.711,4.7a1.274,1.274,0,0,1,1.825,0,1.331,1.331,0,0,1,0,1.858L6.933,14.3,4.8,14.493l.311-2.049Z" transform="translate(53 279.682)" fill="#fff" stroke="#2d3a3a" stroke-linecap="round" stroke-linejoin="round" stroke-width="1.5"/>
    <line id="Line_163" data-name="Line 163" x2="10.347" transform="translate(48.5 278.625)" fill="none" stroke="#2d3a3a" stroke-linecap="round" stroke-width="1.5"/>
    <line id="Line_165" data-name="Line 165" x2="10.347" transform="translate(48.5 284.655)" fill="none" stroke="#2d3a3a" stroke-linecap="round" stroke-width="1.5"/>
    <line id="Line_167" data-name="Line 167" x2="10.347" transform="translate(48.5 290.531)" fill="none" stroke="#2d3a3a" stroke-linecap="round" stroke-width="1.5"/>
    <g id="Rectangle_3168" data-name="Rectangle 3168" transform="translate(47 269)" fill="#fff" stroke="#2d3a3a" stroke-width="1.5">
      <path d="M2,0h8a2,2,0,0,1,2,2V4a0,0,0,0,1,0,0H0A0,0,0,0,1,0,4V2A2,2,0,0,1,2,0Z" stroke="none"/>
      <path d="M2,.75h8A1.25,1.25,0,0,1,11.25,2v.5a.75.75,0,0,1-.75.75h-9A.75.75,0,0,1,.75,2.5V2A1.25,1.25,0,0,1,2,.75Z" fill="none"/>
    </g>
  </g>
</svg>
