<svg xmlns="http://www.w3.org/2000/svg" width="22.382" height="22.382" viewBox="0 0 22.382 22.382">
  <g id="Group_2789" data-name="Group 2789" transform="translate(567)">
    <path id="Path_3200" data-name="Path 3200" d="M-555.809,0A11.2,11.2,0,0,0-567,11.191a11.2,11.2,0,0,0,11.191,11.191,11.2,11.2,0,0,0,11.191-11.191A11.2,11.2,0,0,0-555.809,0Zm0,21.409a10.229,10.229,0,0,1-10.218-10.218A10.229,10.229,0,0,1-555.809.973a10.229,10.229,0,0,1,10.218,10.218A10.229,10.229,0,0,1-555.809,21.409Z" fill="#ddb206"/>
    <path id="Path_3201" data-name="Path 3201" d="M-460.782,208h-9.731a.486.486,0,0,0-.487.487,5.359,5.359,0,0,0,5.352,5.352,5.359,5.359,0,0,0,5.352-5.352A.486.486,0,0,0-460.782,208Zm-4.866,4.866A4.385,4.385,0,0,1-470,208.973h8.7A4.385,4.385,0,0,1-465.648,212.866Z" transform="translate(-90.161 -195.349)" fill="#ddb206"/>
    <circle id="Ellipse_83" data-name="Ellipse 83" cx="1.5" cy="1.5" r="1.5" transform="translate(-553.809 6.191)" fill="#ddb206"/>
    <circle id="Ellipse_84" data-name="Ellipse 84" cx="1.5" cy="1.5" r="1.5" transform="translate(-560.809 6.191)" fill="#ddb206"/>
  </g>
</svg>
