<svg id="Group_24" data-name="Group 24" xmlns="http://www.w3.org/2000/svg" width="22.998" height="23" viewBox="0 0 22.998 23">
  <path id="Path_38" data-name="Path 38" d="M1137.038,1919.923l-3.691,3.937-3.593,3.1-2.953,2.953.443,1.673,1.329.64s1.218-1.243,1.427-.64-.59,3.051-.59,3.051v3.051l.344,2.8,1.87.837,2.215-.345.344-5.167.837-1.87,2.461-.443,2.51.443.984,2.264v4.774l3.986-.492.591-2.264v-2.411l-.591-1.87.591-1.722.492-1.033h.935l.492-.492.3-1.083-2.214-1.821-5.561-5.216Z" transform="translate(-1125.785 -1919)" fill="#248232" stroke="#248232" stroke-width="1"/>
  <path id="Path_27" data-name="Path 27" d="M23.377,9.006l0,0L13.993-.378A2.117,2.117,0,0,0,11-.378L1.621,9l-.009.01a2.116,2.116,0,0,0,1.409,3.607c.022,0,.044,0,.065,0H3.46v6.9A2.481,2.481,0,0,0,5.938,22H9.609a.674.674,0,0,0,.674-.674V15.915a1.132,1.132,0,0,1,1.131-1.131h2.165a1.132,1.132,0,0,1,1.131,1.131v5.413a.674.674,0,0,0,.674.674h3.671a2.481,2.481,0,0,0,2.478-2.478v-6.9h.347a2.118,2.118,0,0,0,1.5-3.614Zm-.954,2.04a.765.765,0,0,1-.544.226H20.858a.674.674,0,0,0-.674.674v7.578a1.132,1.132,0,0,1-1.131,1.13h-3V15.915a2.481,2.481,0,0,0-2.478-2.478H11.414a2.481,2.481,0,0,0-2.478,2.478v4.739h-3a1.132,1.132,0,0,1-1.131-1.13V11.946a.674.674,0,0,0-.674-.674H3.1a.769.769,0,0,1-.53-1.313h0L11.952.575a.769.769,0,0,1,1.088,0l9.38,9.38,0,0A.771.771,0,0,1,22.423,11.046Z" transform="translate(-0.997 0.998)" fill="#248232"/>
</svg>
