<svg xmlns="http://www.w3.org/2000/svg" width="15.568" height="18.402" viewBox="0 0 15.568 18.402">
  <g id="Group_15" data-name="Group 15" transform="translate(0.375)">
    <g id="Group_16" data-name="Group 16" transform="translate(1.459 3.062)">
      <g id="Group_15-2" data-name="Group 15" transform="translate(0)">
        <path id="Path_32" data-name="Path 32" d="M91.373,71.32a5.654,5.654,0,0,0-5.846,5.426V82.51h1.21V76.746a4.65,4.65,0,0,1,9.274,0V82.51h1.21V76.746A5.655,5.655,0,0,0,91.373,71.32Z" transform="translate(-85.527 -71.32)" stroke="#2d3a3a" stroke-width="0.75"/>
      </g>
    </g>
    <g id="Group_18" data-name="Group 18" transform="translate(0 13.184)">
      <g id="Group_17" data-name="Group 17">
        <path id="Path_33" data-name="Path 33" d="M67.239,400.67H53.691a.8.8,0,0,0,0,1.563H67.239a.8.8,0,0,0,0-1.563Z" transform="translate(-53.056 -400.67)" stroke="#2d3a3a" stroke-width="0.75"/>
      </g>
    </g>
    <g id="Group_20" data-name="Group 20" transform="translate(4.935)">
      <g id="Group_19" data-name="Group 19" transform="translate(0)">
        <path id="Path_34" data-name="Path 34" d="M202.732,0a2.4,2.4,0,0,0-2.4,2.4c0,1.321,1.138,1.589,2.459,1.589s2.334-.268,2.334-1.589A2.4,2.4,0,0,0,202.732,0Zm0,3.1a.741.741,0,0,1-.833-.7.834.834,0,1,1,1.667,0A.741.741,0,0,1,202.732,3.1Z" transform="translate(-200.336)"/>
      </g>
    </g>
    <g id="Group_22" data-name="Group 22" transform="translate(4.506 14.182)">
      <g id="Group_21" data-name="Group 21" transform="translate(0)">
        <path id="Path_35" data-name="Path 35" d="M195.225,418.066v1.354a1.3,1.3,0,1,1-2.6,0v-1.354h-1.563v1.354a2.865,2.865,0,0,0,5.73,0v-1.354Z" transform="translate(-191.057 -418.066)"/>
      </g>
    </g>
  </g>
</svg>
