<svg xmlns="http://www.w3.org/2000/svg" width="15.931" height="10.154" viewBox="0 0 15.931 10.154">
  <g id="Group_2946" data-name="Group 2946" transform="translate(0 -92.835)" opacity="0.56">
    <g id="Group_2898" data-name="Group 2898" transform="translate(0 92.835)">
      <g id="Group_2897" data-name="Group 2897" transform="translate(0 0)">
        <path id="Path_3229" data-name="Path 3229" d="M15.83,97.6c-.142-.195-3.533-4.767-7.864-4.767S.243,97.407.1,97.6a.526.526,0,0,0,0,.62c.142.195,3.533,4.767,7.864,4.767s7.722-4.572,7.864-4.767A.525.525,0,0,0,15.83,97.6Zm-7.864,4.336c-3.19,0-5.953-3.035-6.771-4.027.817-.993,3.574-4.026,6.771-4.026s5.953,3.034,6.771,4.027C13.92,98.905,11.162,101.938,7.965,101.938Z" transform="translate(0 -92.835)" fill="#7c7c7c"/>
      </g>
    </g>
    <g id="Group_2900" data-name="Group 2900" transform="translate(4.814 94.761)">
      <g id="Group_2899" data-name="Group 2899" transform="translate(0 0)">
        <path id="Path_3230" data-name="Path 3230" d="M157.873,154.725a3.151,3.151,0,1,0,3.151,3.151A3.155,3.155,0,0,0,157.873,154.725Zm0,5.252a2.1,2.1,0,1,1,2.1-2.1A2.1,2.1,0,0,1,157.873,159.977Z" transform="translate(-154.722 -154.725)" fill="#7c7c7c"/>
      </g>
    </g>
  </g>
</svg>
