<svg xmlns="http://www.w3.org/2000/svg" width="19.189" height="23" viewBox="0 0 19.189 23">
  <g id="filled_profile" data-name="filled profile" transform="translate(-372 -895.23)">
    <path id="Path_36" data-name="Path 36" d="M134.571,11.079a5.361,5.361,0,0,0,3.917-1.623,5.361,5.361,0,0,0,1.623-3.917,5.361,5.361,0,0,0-1.623-3.917,5.538,5.538,0,0,0-7.834,0,5.36,5.36,0,0,0-1.623,3.917,5.36,5.36,0,0,0,1.623,3.917A5.362,5.362,0,0,0,134.571,11.079Zm-2.964-8.5a4.19,4.19,0,0,1,5.927,0,4,4,0,0,1,1.228,2.964A4,4,0,0,1,137.535,8.5a4.19,4.19,0,0,1-5.927,0,4,4,0,0,1-1.228-2.964A4,4,0,0,1,131.607,2.576Z" transform="translate(246.878 895.23)" fill="#248232"/>
    <path id="Path_37" data-name="Path 37" d="M61.143,253.892a13.686,13.686,0,0,0-.186-1.453,11.443,11.443,0,0,0-.357-1.461,7.215,7.215,0,0,0-.6-1.363,5.135,5.135,0,0,0-.906-1.18,3.993,3.993,0,0,0-1.3-.818,4.5,4.5,0,0,0-1.661-.3,1.686,1.686,0,0,0-.9.382c-.27.176-.586.38-.938.6a5.374,5.374,0,0,1-1.214.535,4.713,4.713,0,0,1-2.969,0A5.358,5.358,0,0,1,48.9,248.3c-.349-.223-.665-.427-.939-.605a1.684,1.684,0,0,0-.9-.382,4.49,4.49,0,0,0-1.661.3,3.99,3.99,0,0,0-1.3.818,5.139,5.139,0,0,0-.905,1.18,7.234,7.234,0,0,0-.6,1.363,11.477,11.477,0,0,0-.357,1.461,13.591,13.591,0,0,0-.186,1.454c-.031.439-.046.9-.046,1.358a3.819,3.819,0,0,0,1.134,2.889,4.083,4.083,0,0,0,2.923,1.066H57.132a4.083,4.083,0,0,0,2.923-1.066,3.818,3.818,0,0,0,1.134-2.89C61.189,254.787,61.173,254.33,61.143,253.892Zm-2.017,3.272a2.749,2.749,0,0,1-1.994.695H46.057a2.749,2.749,0,0,1-1.994-.695,2.494,2.494,0,0,1-.716-1.913c0-.431.014-.856.043-1.265a12.255,12.255,0,0,1,.168-1.309,10.125,10.125,0,0,1,.314-1.288,5.888,5.888,0,0,1,.489-1.108,3.807,3.807,0,0,1,.666-.872,2.65,2.65,0,0,1,.866-.538,3.1,3.1,0,0,1,1.061-.2c.047.025.131.073.267.162.277.181.6.387.95.612a6.676,6.676,0,0,0,1.523.681,6.059,6.059,0,0,0,3.8,0,6.686,6.686,0,0,0,1.524-.681c.361-.231.672-.431.949-.612.136-.089.22-.137.267-.162a3.1,3.1,0,0,1,1.062.2,2.653,2.653,0,0,1,.865.538,3.8,3.8,0,0,1,.666.872,5.865,5.865,0,0,1,.489,1.108,10.1,10.1,0,0,1,.314,1.288,12.36,12.36,0,0,1,.168,1.309h0c.029.407.043.832.043,1.264A2.494,2.494,0,0,1,59.125,257.164Z" transform="translate(330 659.024)" fill="#248232"/>
    <g id="Path_3386" data-name="Path 3386" transform="translate(373 908)" fill="#248232">
      <path d="M 13.73558902740479 8.86932373046875 L 2.564410448074341 8.86932373046875 L 0.3462341725826263 7.448206424713135 L 0.8473638892173767 3.686843633651733 L 1.875131487846375 0.4122453629970551 L 3.646990060806274 -0.06015667319297791 L 8.343093872070312 1.801354169845581 L 8.525593757629395 1.873704195022583 L 8.708563804626465 1.802544116973877 L 13.50037670135498 -0.06088293343782425 L 15.31631469726562 0.4181609153747559 L 16.564453125 3.670820713043213 L 16.564453125 8.234526634216309 L 13.73558902740479 8.86932373046875 Z" stroke="none"/>
      <path d="M 13.53007030487061 0.4640522003173828 L 8.523843765258789 2.410854339599609 L 3.616241455078125 0.465510368347168 L 2.269789695739746 0.8244919776916504 L 1.337297439575195 3.795557022094727 L 0.8838729858398438 7.198854923248291 L 2.710812568664551 8.36932373046875 L 13.68021869659424 8.36932373046875 L 16.064453125 7.834301948547363 L 16.064453125 3.763457298278809 L 14.94122505187988 0.8363146781921387 L 13.53007030487061 0.4640522003173828 M 3.677733421325684 -0.5858154296875 L 8.52734375 1.336544036865234 L 13.470703125 -0.5858154296875 L 15.69140338897705 3.814697265625e-06 L 17.064453125 3.578184127807617 L 17.064453125 8.634763717651367 L 13.79101371765137 9.36932373046875 L 2.417963027954102 9.36932373046875 L -0.19140625 7.697574138641357 L 0.3574237823486328 3.578184127807617 L 1.480463027954102 3.814697265625e-06 L 3.677733421325684 -0.5858154296875 Z" stroke="none" fill="#248232"/>
    </g>
    <g id="Ellipse_124" data-name="Ellipse 124" transform="translate(377 896)" fill="#248232" stroke="#248232" stroke-width="1">
      <circle cx="4.5" cy="4.5" r="4.5" stroke="none"/>
      <circle cx="4.5" cy="4.5" r="4" fill="none"/>
    </g>
  </g>
</svg>
