<svg xmlns="http://www.w3.org/2000/svg" width="43.694" height="42.916" viewBox="0 0 43.694 42.916"><defs><style>.a{fill:#248232;stroke:#fbfcfc;stroke-width:2.5px;}</style></defs><g transform="translate(1.25 1.25)"><path class="a" d="M26.6,10.8a5.306,5.306,0,1,1-5.407,5.3A5.356,5.356,0,0,1,26.6,10.8m0,22.734c7.647,0,15.705,3.688,15.705,5.3v2.779H10.892V38.838c0-1.617,8.059-5.3,15.705-5.3M26.6,6A10.2,10.2,0,0,0,16.3,16.1a10.3,10.3,0,0,0,20.6,0A10.2,10.2,0,0,0,26.6,6Zm0,22.734c-6.874,0-20.6,3.385-20.6,10.1v7.578H47.194V38.838C47.194,32.119,33.472,28.734,26.6,28.734Z" transform="translate(-6 -6)"/></g></svg>