<svg xmlns="http://www.w3.org/2000/svg" width="24.353" height="24.353" viewBox="0 0 24.353 24.353">
  <g id="Group_227" data-name="Group 227" transform="translate(0.25 0.25)">
    <path id="Path_152" data-name="Path 152" d="M374.037,0H370.7a.7.7,0,0,0,0,1.4h3.338a1.182,1.182,0,0,1,1.181,1.181V5.917a.7.7,0,1,0,1.4,0V2.578A2.581,2.581,0,0,0,374.037,0Z" transform="translate(-352.763)" fill="#248232" stroke="#248232" stroke-width="0.5"/>
    <path id="Path_153" data-name="Path 153" d="M.7,6.615a.7.7,0,0,0,.7-.7V2.578A1.182,1.182,0,0,1,2.578,1.4H5.917a.7.7,0,1,0,0-1.4H2.578A2.581,2.581,0,0,0,0,2.578V5.917A.7.7,0,0,0,.7,6.615Z" fill="#248232" stroke="#248232" stroke-width="0.5"/>
    <path id="Path_154" data-name="Path 154" d="M5.917,375.218H2.578A1.182,1.182,0,0,1,1.4,374.037V370.7a.7.7,0,0,0-1.4,0v3.338a2.581,2.581,0,0,0,2.578,2.578H5.917a.7.7,0,1,0,0-1.4Z" transform="translate(0 -352.763)" fill="#248232" stroke="#248232" stroke-width="0.5"/>
    <path id="Path_155" data-name="Path 155" d="M375.917,370a.7.7,0,0,0-.7.7v3.338a1.182,1.182,0,0,1-1.181,1.181H370.7a.7.7,0,0,0,0,1.4h3.338a2.581,2.581,0,0,0,2.578-2.578V370.7A.7.7,0,0,0,375.917,370Z" transform="translate(-352.763 -352.763)" fill="#248232" stroke="#248232" stroke-width="0.5"/>
    <path id="Path_156" data-name="Path 156" d="M327.342,81.4h2.216a.549.549,0,0,1,.549.549v2.216a.7.7,0,1,0,1.4,0V81.946A1.949,1.949,0,0,0,329.558,80h-2.216a.7.7,0,1,0,0,1.4Z" transform="translate(-311.426 -76.273)" fill="#248232" stroke="#248232" stroke-width="0.5"/>
    <path id="Path_157" data-name="Path 157" d="M81,81.946v2.216a.7.7,0,1,0,1.4,0V81.946a.55.55,0,0,1,.549-.549h2.216a.7.7,0,0,0,0-1.4H82.946A1.949,1.949,0,0,0,81,81.946Z" transform="translate(-77.226 -76.273)" fill="#248232" stroke="#248232" stroke-width="0.5"/>
    <path id="Path_158" data-name="Path 158" d="M85.163,329.108H82.946a.549.549,0,0,1-.549-.549v-2.216a.7.7,0,1,0-1.4,0v2.216a1.949,1.949,0,0,0,1.946,1.946h2.216a.7.7,0,0,0,0-1.4Z" transform="translate(-77.226 -310.473)" fill="#248232" stroke="#248232" stroke-width="0.5"/>
    <path id="Path_159" data-name="Path 159" d="M331.5,328.559v-2.216a.7.7,0,1,0-1.4,0v2.216a.55.55,0,0,1-.549.549h-2.216a.7.7,0,1,0,0,1.4h2.216A1.949,1.949,0,0,0,331.5,328.559Z" transform="translate(-311.426 -310.473)" fill="#248232" stroke="#248232" stroke-width="0.5"/>
    <path id="Path_160" data-name="Path 160" d="M1,241.7a.7.7,0,0,0,.7.7H24.061a.7.7,0,1,0,0-1.4H1.7A.7.7,0,0,0,1,241.7Z" transform="translate(-0.953 -229.773)" fill="#248232" stroke="#248232" stroke-width="0.5"/>
  </g>
</svg>
