<svg xmlns="http://www.w3.org/2000/svg" width="34.812" height="38.23" viewBox="0 0 34.812 38.23">
  <g id="icon" transform="translate(-37.287 -310.5)">
    <path id="Icon_material-person-outline" data-name="Icon material-person-outline" d="M19.8,9.5a3.753,3.753,0,0,1,3.622,3.872A3.753,3.753,0,0,1,19.8,17.248a3.753,3.753,0,0,1-3.622-3.872A3.753,3.753,0,0,1,19.8,9.5m0,16.6c5.123,0,10.522,2.692,10.522,3.872V32H9.277V29.972c0-1.18,5.4-3.872,10.522-3.872M19.8,6a7.148,7.148,0,0,0-6.9,7.376,7.148,7.148,0,0,0,6.9,7.376,7.148,7.148,0,0,0,6.9-7.376A7.148,7.148,0,0,0,19.8,6Zm0,16.6C15.194,22.6,6,25.067,6,29.972V35.5l.458-2.122L15.9,32.83l1.3.14,1.056-.333,6.2,2.939L33.6,35.5V29.972C33.6,25.067,24.405,22.6,19.8,22.6Z" transform="translate(38 305)" fill="#2d3a3a" stroke="#fbfcfc" stroke-linecap="round" stroke-linejoin="round" stroke-width="1"/>
    <path id="Icon_ionic-ios-call" data-name="Icon ionic-ios-call" d="M30.225,26.456a22.215,22.215,0,0,0-4.65-3.292c-1.394-.708-1.9-.693-2.891.058-.821.628-1.352,1.212-2.3.993S17.58,22.507,15.772,20.6s-3.215-3.883-3.415-4.883.352-1.562.938-2.431c.711-1.044.731-1.584.055-3.058a23.224,23.224,0,0,0-3.111-4.92C9.225,4.237,9,4.471,8.439,4.682a10.052,10.052,0,0,0-1.649.927A5.157,5.157,0,0,0,4.81,7.821c-.393.9-.849,2.569,1.469,6.934a38.6,38.6,0,0,0,6.429,9.073h0l.007.007.007.007h0a36.964,36.964,0,0,0,8.575,6.8C25.423,33.1,27,32.617,27.851,32.2a5.012,5.012,0,0,0,2.09-2.095,11.085,11.085,0,0,0,.876-1.745C31.018,27.77,31.246,27.529,30.225,26.456Z" transform="translate(33.51 315.479)" fill="#2d3a3a" stroke="#fbfcfc" stroke-width="1.5"/>
  </g>
</svg>
